<?xml version="1.0" encoding="UTF-8"?>
<svg xmlns="http://www.w3.org/2000/svg" version="1.1" viewBox="0 0 1000 247.2">
  <defs>
    <style>
      .cls-1 {
        isolation: isolate;
      }
    </style>
  </defs>
  <!-- Generator: Adobe Illustrator 28.7.1, SVG Export Plug-In . SVG Version: 1.2.0 Build 142)  -->
  <g>
    <g id="Layer_1">
      <g id="Layer_1-2" data-name="Layer_1">
        <g id="Layer_1-2">
          <g id="Layer_1-2-2" data-name="Layer_1-2">
            <g id="Layer_1-2-2">
              <g class="cls-1">
                <g class="cls-1">
                  <g class="cls-1">
                    <path d="M125.7,185.8c-2.3-10.1-4.8-20.7-8.1-31.9H50.3c-3.3,11.2-5.8,21.9-8.1,31.9h-21.1c10.6-44.9,27.7-95.5,51.3-135.4h23.2c23.6,39.8,40.6,90.5,51.3,135.4h-21.2ZM111.8,135.3c-7.3-22.8-15.9-45.5-27.7-66.3h-.4c-11.8,20.9-20.3,43.5-27.7,66.3h55.8Z"/>
                    <path d="M179.3,89.1v57.4c0,16.1,5.2,23.8,19.5,23.8s26.7-10.8,26.7-29.4v-51.8h19.5v96.7h-19.5v-14.3c-6.4,10.6-17.8,16.6-30.8,16.6-26.1,0-35-17.4-35-41v-58s19.6,0,19.6,0Z"/>
                    <path d="M305.2,188.1c-17.6,0-26.5-10.4-26.5-28.2v-54.2h-17.2v-16.6h17.2v-27.1h19.5v27.1h26.1v16.6h-26.1v52.6c0,8.9,3.7,12.4,10.8,12.4s9.7-.6,15.3-2.7v17c-7.2,2.5-13.7,3.1-19.1,3.1h0Z"/>
                    <path d="M388.7,86.8c34.2,0,48.5,25.5,48.5,50.7s-14.3,50.7-48.5,50.7-48.5-25.5-48.5-50.7,14.3-50.7,48.5-50.7ZM388.7,104.6c-20.5,0-29,16.2-29,32.9s8.5,32.9,29,32.9,29-16.2,29-32.9-8.5-32.9-29-32.9Z"/>
                    <path d="M481.2,185.8h-20.3V50.4h86.1v18.6h-65.8v41.2h58.8v18.4h-58.8v57.2h0Z"/>
                    <path d="M608.6,86.8c34.2,0,48.5,25.5,48.5,50.7s-14.3,50.7-48.5,50.7-48.5-25.5-48.5-50.7,14.3-50.7,48.5-50.7ZM608.6,104.6c-20.5,0-29,16.2-29,32.9s8.5,32.9,29,32.9,29-16.2,29-32.9-8.5-32.9-29-32.9Z"/>
                    <path d="M745.9,124.1c-2.7-11.4-9.9-19.5-25.1-19.5s-29,16.2-29,32.9,8.5,32.9,29,32.9,22.4-8.1,25.1-19.5h19.9c-3.5,20.5-16.4,37.3-45.1,37.3s-48.5-25.5-48.5-50.7,14.3-50.7,48.5-50.7,41.6,16.8,45.1,37.3c0,0-19.9,0-19.9,0Z"/>
                    <path d="M805.1,89.1v57.4c0,16.1,5.2,23.8,19.5,23.8s26.7-10.8,26.7-29.4v-51.8h19.5v96.7h-19.5v-14.3c-6.4,10.6-17.8,16.6-30.8,16.6-26.1,0-35-17.4-35-41v-58s19.6,0,19.6,0Z"/>
                    <path d="M910.9,157c1,10.4,10.2,15.5,20.9,15.5s20.9-4.1,20.9-13.9c0-21.9-59.4-3.3-59.4-41.8s18.6-30,38.1-30,36.2,9.7,37.9,30.8h-19.1c-1-10.4-9.1-15.1-19-15.1s-18.4,3.5-18.4,13.3c0,21.5,59.4,2.7,59.4,41.8s-19.9,30.6-40.2,30.6-39.3-10.1-40.6-31.1h19.5,0Z"/>
                  </g>
                </g>
              </g>
            </g>
          </g>
        </g>
      </g>
    </g>
  </g>
</svg>